<svg width="20" height="20" viewBox="0 0 20 20" fill="none" xmlns="http://www.w3.org/2000/svg">
    <g clip-path="url(#clip0_18_6617)">
        <path d="M18.9474 16V17C18.9474 18.105 18.0053 19 16.8421 19H2.10526C0.942105 19 0 18.105 0 17V3C0 1.895 0.942105 1 2.10526 1H16.8421C18.0053 1 18.9474 1.895 18.9474 3V4H9.47368C8.31053 4 7.36842 4.895 7.36842 6V14C7.36842 15.105 8.31053 16 9.47368 16H18.9474ZM9.47368 14H20V6H9.47368V14ZM13.6842 11.5C12.8105 11.5 12.1053 10.83 12.1053 10C12.1053 9.17 12.8105 8.5 13.6842 8.5C14.5579 8.5 15.2632 9.17 15.2632 10C15.2632 10.83 14.5579 11.5 13.6842 11.5Z" fill="#3152FF"/>
    </g>
    <defs>
        <clipPath id="clip0_18_6617">
            <rect width="20" height="20" fill="white"/>
        </clipPath>
    </defs>
</svg>
