<svg width="14" height="16" viewBox="0 0 16 18" fill="none" xmlns="http://www.w3.org/2000/svg">
    <path
            d="M11.775 8.21683L10.8917 7.3335L6.825 11.4002L5.05833 9.6335L4.175 10.5168L6.825 13.1668L11.775 8.21683ZM13.8333 2.50016H13V0.833496H11.3333V2.50016H4.66667V0.833496H3V2.50016H2.16667C1.24583 2.50016 0.508333 3.246 0.508333 4.16683L0.5 15.8335C0.5 16.7543 1.24583 17.5002 2.16667 17.5002H13.8333C14.7542 17.5002 15.5 16.7543 15.5 15.8335V4.16683C15.5 3.246 14.7542 2.50016 13.8333 2.50016ZM13.8333 15.8335H2.16667V5.66683H13.8333V15.8335Z"
            fill="#A3A3A3"/>
</svg>