<svg width="25" height="25" viewBox="0 0 25 25" fill="none" xmlns="http://www.w3.org/2000/svg">
    <g clip-path="url(#clip0_273_20959)">
        <path d="M13.9974 21.2681C11.3317 23.9338 7.01313 23.9294 4.35183 21.2681C1.69053 18.6068 1.68615 14.2882 4.35183 11.6225L13.5589 2.41542C15.4968 0.477536 18.636 0.477536 20.5739 2.41542C22.5118 4.3533 22.5118 7.49248 20.5739 9.43036L13.1205 16.8837C11.9104 18.0938 9.94625 18.0938 8.73617 16.8837C7.52609 15.6737 7.52609 13.7095 8.73617 12.4994L15.3127 5.92289L16.628 7.23819L10.0515 13.8147C9.5692 14.297 9.56481 15.0818 10.0515 15.5684C10.5381 16.0551 11.3229 16.0507 11.8052 15.5684L19.2586 8.11506C20.4687 6.90498 20.4687 4.9408 19.2586 3.73072C18.0485 2.52064 16.0843 2.52064 14.8743 3.73072L5.66713 12.9378C3.72925 14.8757 3.72925 18.0149 5.66713 19.9528C7.60501 21.8907 10.7442 21.8907 12.6821 19.9528L21.0123 11.6225L22.3276 12.9378L13.9974 21.2681Z"
              fill="#CCD9EC"/>
    </g>
    <defs>
        <clipPath id="clip0_273_20959">
            <rect width="25" height="25" fill="white" transform="translate(0 25) rotate(-90)"/>
        </clipPath>
    </defs>
</svg>
