<svg width="20" height="20" viewBox="0 0 20 20" fill="none" xmlns="http://www.w3.org/2000/svg">
    <path d="M9.995 0C4.47 0 0 4.475 0 10C0 15.525 4.47 20 9.995 20C15.52 20 20 15.525 20 10C20 4.475 15.52 0 9.995 0ZM10 18C5.58 18 2 14.42 2 10C2 5.58 5.58 2 10 2C14.42 2 18 5.58 18 10C18 14.42 14.42 18 10 18Z"
          fill="#A3A3A3"/>
    <path d="M8.652 10.348C8.652 10.0867 8.74067 9.83467 8.918 9.592C9.10467 9.34 9.38467 9.06467 9.758 8.766C10.0753 8.50467 10.29 8.29933 10.402 8.15C10.5233 7.99133 10.584 7.80467 10.584 7.59C10.584 7.338 10.5 7.13267 10.332 6.974C10.164 6.81533 9.954 6.736 9.702 6.736C9.198 6.736 8.81067 7.09067 8.54 7.8L7 7.128C7.196 6.428 7.53667 5.90067 8.022 5.546C8.50733 5.182 9.086 5 9.758 5C10.2713 5 10.738 5.10267 11.158 5.308C11.578 5.51333 11.9093 5.80267 12.152 6.176C12.3947 6.54 12.516 6.96467 12.516 7.45C12.516 7.842 12.4227 8.192 12.236 8.5C12.0587 8.808 11.7647 9.13933 11.354 9.494C10.9713 9.83 10.71 10.0727 10.57 10.222C10.4393 10.3713 10.374 10.5393 10.374 10.726C10.374 10.81 10.3833 10.908 10.402 11.02H8.806C8.70333 10.796 8.652 10.572 8.652 10.348ZM9.66 14.576C9.28667 14.576 8.974 14.4547 8.722 14.212C8.47 13.96 8.344 13.6473 8.344 13.274C8.344 12.91 8.47 12.602 8.722 12.35C8.974 12.098 9.28667 11.972 9.66 11.972C10.0333 11.972 10.3413 12.098 10.584 12.35C10.836 12.602 10.962 12.91 10.962 13.274C10.962 13.6473 10.836 13.96 10.584 14.212C10.3413 14.4547 10.0333 14.576 9.66 14.576Z"
          fill="#A3A3A3"/>
</svg>
