<svg width="16" height="15" viewBox="0 0 16 15" fill="none" xmlns="http://www.w3.org/2000/svg">
<path d="M1.56712 5.90983L5.02832 5.90983C5.89477 5.90983 6.66268 5.35191 6.93043 4.52786L8 1.23607L9.06957 4.52786C9.33732 5.35191 10.1052 5.90983 10.9717 5.90983H14.4329L11.6327 7.94427C10.9317 8.45356 10.6384 9.35629 10.9062 10.1803L11.9757 13.4721L9.17557 11.4377C8.4746 10.9284 7.5254 10.9284 6.82443 11.4377L4.02426 13.4721L5.09383 10.1803C5.36158 9.35629 5.06826 8.45356 4.36729 7.94427L1.56712 5.90983ZM1.56712 5.90983V4.90983L1.56712 5.90983L0.979333 6.71885L1.56712 5.90983Z" fill="#FFB800" stroke="#FFB800" stroke-width="2"/>
</svg>
